# xmcd
#
# Track frame offsets: 
#        150
#        19273
#        38270
#        53120
#        69696
#        87274
#        100800
#        115716
#        135544
#        148573
#
# Disc length: 2195 seconds
#
# Revision: 0
# Processed by: cddbd v1.5.2PL0 Copyright (c) Steve Scherf et al.
# Submitted via: ExactAudioCopy v0.99pb4
#
DISCID=7d08910a
DTITLE=Ray Charles - Best Of
DYEAR=2008
DGENRE=R&B
TTITLE0=I Can't Stop Loving You
TTITLE1=Over The Rainbow
TTITLE2=You Don't Know Me
TTITLE3=Georgia On My Mind
TTITLE4=What'd I Say
TTITLE5=Crying Time
TTITLE6=Here We Go Again
TTITLE7=That Lucky Old Sun (Just Rolls Around Heaven All Day)
TTITLE8=Unchain My Heart
TTITLE9=Your Cheatin' Heart
EXTD=
EXTT0=
EXTT1=
EXTT2=
EXTT3=
EXTT4=
EXTT5=
EXTT6=
EXTT7=
EXTT8=
EXTT9=
PLAYORDER=
